<?xml version="1.0" encoding="UTF-8" standalone="no"?>
<!-- Created with Inkscape (http://www.inkscape.org/) -->

<svg
   width="185.23337mm"
   height="13.94229mm"
   viewBox="0 0 185.23337 13.94229"
   version="1.1"
   id="svg1"
   xml:space="preserve"
   inkscape:version="1.4.3 (0d15f75042, 2025-12-25)"
   sodipodi:docname="logo-practicum.svg"
   inkscape:export-filename="logo-practicum.png"
   inkscape:export-xdpi="96"
   inkscape:export-ydpi="96"
   xmlns:inkscape="http://www.inkscape.org/namespaces/inkscape"
   xmlns:sodipodi="http://sodipodi.sourceforge.net/DTD/sodipodi-0.dtd"
   xmlns="http://www.w3.org/2000/svg"
   xmlns:svg="http://www.w3.org/2000/svg"><sodipodi:namedview
     id="namedview1"
     pagecolor="#ffffff"
     bordercolor="#000000"
     borderopacity="0.25"
     inkscape:showpageshadow="2"
     inkscape:pageopacity="0.0"
     inkscape:pagecheckerboard="0"
     inkscape:deskcolor="#d1d1d1"
     inkscape:document-units="mm"
     inkscape:zoom="1.0091449"
     inkscape:cx="301.7406"
     inkscape:cy="142.19959"
     inkscape:window-width="1920"
     inkscape:window-height="1052"
     inkscape:window-x="0"
     inkscape:window-y="0"
     inkscape:window-maximized="1"
     inkscape:current-layer="layer1" /><defs
     id="defs1" /><g
     inkscape:label="Layer 1"
     inkscape:groupmode="layer"
     id="layer1"
     transform="translate(-11.690984,-100.22506)"><path
       style="fill:#000000"
       d="m 19.658011,114.16735 h -1.991757 v -0.99588 -0.99587 h -0.995878 -0.995878 v -0.99588 -0.99588 h -0.995879 -0.995878 v -0.99588 -0.99588 h -0.995878 -0.995879 v -0.99587 -0.99588 h 0.995879 0.995878 v -0.99588 -0.99588 h 0.995878 0.995879 v -0.99588 -0.99588 h 0.995878 0.995878 v -0.99587 -0.99588 h 1.991757 1.991756 v 0.99588 0.99587 h -0.995878 -0.995878 v 0.99588 0.99588 h -0.995878 -0.995879 v 0.99588 0.99588 h -0.995878 -0.995878 v 0.99588 0.99587 h 0.995878 0.995878 v 0.99588 0.99588 h 0.995879 0.995878 v 0.99588 0.99588 h 0.995878 0.995878 v 0.99587 0.99588 z m 5.97527,0 h -1.991757 v -6.97114 -6.97115 h 5.97527 5.97527 v 0.99588 0.99587 h 0.995878 0.995878 v 2.98764 2.98763 h -0.995878 -0.995878 v 0.99588 0.99588 H 31.60855 27.625037 v 1.99176 1.99175 z m 4.979391,-7.96702 h 2.987635 v -0.99588 -0.99588 h -2.987635 -2.987635 v 0.99588 0.99588 z m 10.954661,7.96702 h -1.991756 v -6.97114 -6.97115 h 5.97527 5.975269 v 0.99588 0.99587 h 0.995879 0.995878 v 2.98764 2.98763 h -0.995878 -0.995879 v 0.99588 0.99588 h 0.995879 0.995878 v 1.99176 1.99175 H 51.526116 49.53436 v -0.99588 -0.99587 h -0.995878 -0.995879 v -0.99588 -0.99588 H 45.550847 43.55909 v 1.99176 1.99175 z m 4.979392,-7.96702 h 2.987635 v -0.99588 -0.99588 H 46.546725 43.55909 v 0.99588 0.99588 z m 10.954661,7.96702 H 55.50963 v -4.97939 -4.97939 h 0.995878 0.995878 v -0.99588 -0.99588 h 0.995879 0.995878 v -0.99587 -0.99588 h 3.983513 3.983513 v 0.99588 0.99587 h 0.995879 0.995878 v 5.97527 5.97527 h -1.991757 -1.991756 v -1.99175 -1.99176 h -2.987635 -2.987635 v 1.99176 1.99175 z m 4.979392,-7.96702 h 2.987635 v -0.99588 -0.99588 h -2.987635 -2.987635 v 0.99588 0.99588 z m 16.929931,7.96702 h -5.97527 v -0.99588 -0.99587 h -0.995878 -0.995879 v -3.98352 -3.98351 h 0.995879 0.995878 v -0.99588 -0.99588 h 0.995878 0.995879 v -0.99587 -0.99588 h 4.979391 4.979392 v 1.99175 1.99176 h -4.979392 -4.979391 v 2.98764 2.98763 h 4.979391 4.979392 v 1.99176 1.99175 z m 14.938174,0 h -2.987635 v -4.97939 -4.97939 h -1.991756 -1.991757 v -1.99176 -1.99175 h 6.971148 6.971157 v 1.99175 1.99176 h -1.991764 -1.991758 v 4.97939 4.97939 z m 15.934057,0 h -2.98763 v -6.97114 -6.97115 h 2.98763 2.98763 v 6.97115 6.97114 z m 16.92993,0 h -5.97527 v -0.99588 -0.99587 h -0.99588 -0.99588 v -3.98352 -3.98351 h 0.99588 0.99588 v -0.99588 -0.99588 h 0.99588 0.99588 v -0.99587 -0.99588 h 4.97939 4.97939 v 1.99175 1.99176 h -4.97939 -4.97939 v 2.98764 2.98763 h 4.97939 4.97939 v 1.99176 1.99175 z m 14.93818,0 h -4.9794 v -0.99588 -0.99587 h -0.99587 -0.99588 v -5.97527 -5.97527 h 1.99175 1.99176 v 4.97939 4.97939 h 2.98764 2.98763 v -4.97939 -4.97939 h 1.99176 1.99175 v 5.97527 5.97527 h -0.99587 -0.99588 v 0.99587 0.99588 z m 10.95466,0 h -1.99176 v -6.97114 -6.97115 h 1.99176 1.99175 v 0.99588 0.99587 h 0.99588 0.99588 v 0.99588 0.99588 h 0.99588 0.99588 v -0.99588 -0.99588 h 0.99588 0.99587 v -0.99587 -0.99588 h 1.99176 1.99176 v 6.97115 6.97114 h -1.99176 -1.99176 v -2.98763 -2.98764 h -0.99587 -0.99588 v 0.99588 0.99588 h -0.99588 -0.99588 v -0.99588 -0.99588 h -0.99588 -0.99588 v 2.98764 2.98763 z m 15.93405,0 H 167.048 v -1.99175 -1.99176 h 0.99588 0.99588 v -0.99588 -0.99588 h 0.99588 0.99588 v -0.99587 -0.99588 h 0.99587 0.99588 v -0.99588 -0.99588 h 0.99588 0.99588 v -0.99588 -0.99588 h 0.99588 0.99588 v -0.99587 -0.99588 h 1.99175 1.99176 v 1.99175 1.99176 h -0.99588 -0.99588 v 0.99588 0.99588 h -0.99588 -0.99587 v 0.99588 0.99587 h -0.99588 -0.99588 v 0.99588 0.99588 h -0.99588 -0.99588 v 0.99588 0.99588 h -0.99588 -0.99587 v 0.99587 0.99588 z m 19.91757,0 h -1.99176 v -0.99588 -0.99587 h 0.99588 0.99588 v -0.99588 -0.99588 h 0.99587 0.99588 v -0.99588 -0.99588 h 0.99588 0.99588 v -0.99587 -0.99588 h -0.99588 -0.99588 v -0.99588 -0.99588 h -0.99588 -0.99587 v -0.99588 -0.99588 h -0.99588 -0.99588 v -0.99587 -0.99588 h 1.99176 1.99175 v 0.99588 0.99587 h 0.99588 0.99588 v 0.99588 0.99588 h 0.99588 0.99588 v 0.99588 0.99588 h 0.99587 0.99588 v 0.99588 0.99587 h -0.99588 -0.99587 v 0.99588 0.99588 h -0.99588 -0.99588 v 0.99588 0.99588 h -0.99588 -0.99588 v 0.99587 0.99588 z"
       id="path1" /></g></svg>
